mtllib fence.mtl
# vertices
v -176 -16 48
v -176 -16 64
v -176 96 64
v -176 96 48
v 176 96 64
v 176 -16 64
v 176 -16 48
v 176 96 48
v 48 96 48
v 48 96 64
v 160 128 64
v 160 128 48
v 176 128 64
v 176 96 64
v 176 96 48
v 176 128 48
v -144 96 48
v -144 96 64
v -144 128 64
v -144 128 48
v -128 128 64
v -128 96 64
v -128 96 48
v -128 128 48
v 176 -16 48
v 176 -16 64
v 176 96 64
v 176 96 48
v 240 96 64
v 240 -16 64
v 240 -16 48
v 240 96 48

# texture coordinates
vt -48 -16
vt -64 -16
vt -64 96
vt -48 96
vt 176 96
vt -176 96
vt -176 -16
vt 176 -16
vt 176 -64
vt -176 -64
vt -176 -48
vt 176 -48
vt 48 -48
vt 48 -64
vt 160 -64
vt 160 -48
vt 176 128
vt 160 128
vt 48 96
vt -48 128
vt -64 128
vt -128 128
vt -144 128
vt -144 96
vt -128 96
vt -128 -64
vt -144 -64
vt -144 -48
vt -128 -48
vt 240 96
vt 240 -16
vt 240 -64
vt 240 -48

# normals
vn -1 0 -0
vn 0 0 1
vn 0 -1 -0
vn 0 1 -0
vn -0 0 -1
vn 1 0 0
vn -0.27472112789737807 0.9615239476408232 -0

o entity0_brush0
usemtl __TB_empty
f  1/1/1  2/2/1  3/3/1  4/4/1
usemtl __TB_empty
f  5/5/2  3/6/2  2/7/2  6/8/2
usemtl __TB_empty
f  6/9/3  2/10/3  1/11/3  7/12/3
usemtl __TB_empty
f  8/12/4  4/11/4  3/10/4  5/9/4
usemtl __TB_empty
f  7/8/5  1/7/5  4/6/5  8/5/5
usemtl __TB_empty
f  8/4/6  5/3/6  6/2/6  7/1/6

o entity0_brush1
usemtl __TB_empty
f  9/13/7  10/14/7  11/15/7  12/16/7
usemtl __TB_empty
f  13/17/2  11/18/2  10/19/2  14/5/2
usemtl __TB_empty
f  14/9/3  10/14/3  9/13/3  15/12/3
usemtl __TB_empty
f  16/12/4  12/16/4  11/15/4  13/9/4
usemtl __TB_empty
f  15/5/5  9/19/5  12/18/5  16/17/5
usemtl __TB_empty
f  16/20/6  13/21/6  14/3/6  15/4/6

o entity0_brush2
usemtl __TB_empty
f  17/4/1  18/3/1  19/21/1  20/20/1
usemtl __TB_empty
f  21/22/2  19/23/2  18/24/2  22/25/2
usemtl __TB_empty
f  22/26/3  18/27/3  17/28/3  23/29/3
usemtl __TB_empty
f  24/29/4  20/28/4  19/27/4  21/26/4
usemtl __TB_empty
f  23/25/5  17/24/5  20/23/5  24/22/5
usemtl __TB_empty
f  24/20/6  21/21/6  22/3/6  23/4/6

o entity0_brush3
usemtl __TB_empty
f  25/1/1  26/2/1  27/3/1  28/4/1
usemtl __TB_empty
f  29/30/2  27/5/2  26/8/2  30/31/2
usemtl __TB_empty
f  30/32/3  26/9/3  25/12/3  31/33/3
usemtl __TB_empty
f  32/33/4  28/12/4  27/9/4  29/32/4
usemtl __TB_empty
f  31/31/5  25/8/5  28/5/5  32/30/5
usemtl __TB_empty
f  32/4/6  29/3/6  30/2/6  31/1/6

