mtllib fence_2.mtl
# vertices
v 176 -16 48
v 176 -16 64
v 176 96 64
v 176 96 48
v 224 96 64
v 224 -16 64
v 224 -16 48
v 224 96 48
v 192 96 48
v 192 96 64
v 192 112 64
v 192 112 48
v 208 112 64
v 208 96 64
v 208 96 48
v 208 112 48
v 96 80 48
v 96 80 64
v 96 96 64
v 96 96 48
v 112 96 64
v 112 80 64
v 112 80 48
v 112 96 48
v -32 -16 48
v -32 -16 64
v -32 96 64
v -32 96 48
v 96 96 64
v 96 -16 64
v 96 -16 48
v 96 96 48
v -176 -16 48
v -176 -16 64
v -176 96 64
v -176 96 48
v -48 96 64
v -48 -16 64
v -48 -16 48
v -48 96 48
v -48 64 48
v -48 64 64
v -48 96 64
v -48 96 48
v -32 96 64
v -32 64 64
v -32 64 48
v -32 96 48
v -48 -16 48
v -48 -16 64
v -48 48 64
v -48 48 48
v -32 48 64
v -32 -16 64
v -32 -16 48
v -32 48 48
v 80 96 48
v 80 96 64
v 80 112 64
v 80 112 48
v 112 112 64
v 112 96 64
v 112 96 48
v 112 112 48
v -16 96 48
v -16 96 64
v -16 112 64
v -16 112 48
v 0 112 64
v 0 96 64
v 0 96 48
v 0 112 48
v -144 128 48
v -144 96 48
v -144 96 64
v -144 128 64
v -112 112 64
v -112 96 64
v -112 96 48
v -112 112 48
v 112 -16 48
v 112 -16 64
v 112 96 64
v 112 96 48
v 176 96 64
v 176 -16 64
v 176 -16 48
v 176 96 48
v 96 -16 48
v 96 -16 64
v 96 64 64
v 96 64 48
v 112 64 64
v 112 -16 64
v 112 -16 48
v 112 64 48

# texture coordinates
vt -48 -16
vt -64 -16
vt -64 96
vt -48 96
vt 224 96
vt 176 96
vt 176 -16
vt 224 -16
vt 224 -64
vt 176 -64
vt 176 -48
vt 224 -48
vt -64 112
vt -48 112
vt 208 112
vt 192 112
vt 192 96
vt 208 96
vt 208 -64
vt 192 -64
vt 192 -48
vt 208 -48
vt -48 80
vt -64 80
vt 112 96
vt 96 96
vt 96 80
vt 112 80
vt 112 -64
vt 96 -64
vt 96 -48
vt 112 -48
vt -32 96
vt -32 -16
vt 96 -16
vt -32 -64
vt -32 -48
vt -176 96
vt -176 -16
vt -48 -64
vt -176 -64
vt -176 -48
vt -48 -48
vt -48 64
vt -64 64
vt -32 64
vt -64 48
vt -48 48
vt -32 48
vt 112 112
vt 80 112
vt 80 96
vt 80 -64
vt 80 -48
vt 0 112
vt -16 112
vt -16 96
vt 0 96
vt 0 -64
vt -16 -64
vt -16 -48
vt 0 -48
vt -48 128
vt -64 128
vt -112 112
vt -144 128
vt -144 96
vt -112 96
vt -112 -64
vt -144 -64
vt -144 -48
vt -112 -48
vt 112 -16
vt 112 64
vt 96 64

# normals
vn -1 0 -0
vn -0 0 1
vn 0 -1 0
vn 0 1 -0
vn 0 0 -1
vn 1 0 -0
vn 0.4472135954999579 0.8944271909999159 -0

o entity0_brush0
usemtl __TB_empty
f  1/1/1  2/2/1  3/3/1  4/4/1
usemtl __TB_empty
f  5/5/2  3/6/2  2/7/2  6/8/2
usemtl __TB_empty
f  6/9/3  2/10/3  1/11/3  7/12/3
usemtl __TB_empty
f  8/12/4  4/11/4  3/10/4  5/9/4
usemtl __TB_empty
f  7/8/5  1/7/5  4/6/5  8/5/5
usemtl __TB_empty
f  8/4/6  5/3/6  6/2/6  7/1/6

o entity0_brush1
usemtl __TB_empty
f  9/4/1  10/3/1  11/13/1  12/14/1
usemtl __TB_empty
f  13/15/2  11/16/2  10/17/2  14/18/2
usemtl __TB_empty
f  14/19/3  10/20/3  9/21/3  15/22/3
usemtl __TB_empty
f  16/22/4  12/21/4  11/20/4  13/19/4
usemtl __TB_empty
f  15/18/5  9/17/5  12/16/5  16/15/5
usemtl __TB_empty
f  16/14/6  13/13/6  14/3/6  15/4/6

o entity0_brush2
usemtl __TB_empty
f  17/23/1  18/24/1  19/3/1  20/4/1
usemtl __TB_empty
f  21/25/2  19/26/2  18/27/2  22/28/2
usemtl __TB_empty
f  22/29/3  18/30/3  17/31/3  23/32/3
usemtl __TB_empty
f  24/32/4  20/31/4  19/30/4  21/29/4
usemtl __TB_empty
f  23/28/5  17/27/5  20/26/5  24/25/5
usemtl __TB_empty
f  24/4/6  21/3/6  22/24/6  23/23/6

o entity0_brush3
usemtl __TB_empty
f  25/1/1  26/2/1  27/3/1  28/4/1
usemtl __TB_empty
f  29/26/2  27/33/2  26/34/2  30/35/2
usemtl __TB_empty
f  30/30/3  26/36/3  25/37/3  31/31/3
usemtl __TB_empty
f  32/31/4  28/37/4  27/36/4  29/30/4
usemtl __TB_empty
f  31/35/5  25/34/5  28/33/5  32/26/5
usemtl __TB_empty
f  32/4/6  29/3/6  30/2/6  31/1/6

o entity0_brush4
usemtl __TB_empty
f  33/1/1  34/2/1  35/3/1  36/4/1
usemtl __TB_empty
f  37/4/2  35/38/2  34/39/2  38/1/2
usemtl __TB_empty
f  38/40/3  34/41/3  33/42/3  39/43/3
usemtl __TB_empty
f  40/43/4  36/42/4  35/41/4  37/40/4
usemtl __TB_empty
f  39/1/5  33/39/5  36/38/5  40/4/5
usemtl __TB_empty
f  40/4/6  37/3/6  38/2/6  39/1/6

o entity0_brush5
usemtl __TB_empty
f  41/44/1  42/45/1  43/3/1  44/4/1
usemtl __TB_empty
f  45/33/2  43/4/2  42/44/2  46/46/2
usemtl __TB_empty
f  46/36/3  42/40/3  41/43/3  47/37/3
usemtl __TB_empty
f  48/37/4  44/43/4  43/40/4  45/36/4
usemtl __TB_empty
f  47/46/5  41/44/5  44/4/5  48/33/5
usemtl __TB_empty
f  48/4/6  45/3/6  46/45/6  47/44/6

o entity0_brush6
usemtl __TB_empty
f  49/1/1  50/2/1  51/47/1  52/48/1
usemtl __TB_empty
f  53/49/2  51/48/2  50/1/2  54/34/2
usemtl __TB_empty
f  54/36/3  50/40/3  49/43/3  55/37/3
usemtl __TB_empty
f  56/37/4  52/43/4  51/40/4  53/36/4
usemtl __TB_empty
f  55/34/5  49/1/5  52/48/5  56/49/5
usemtl __TB_empty
f  56/48/6  53/47/6  54/2/6  55/1/6

o entity0_brush7
usemtl __TB_empty
f  57/4/1  58/3/1  59/13/1  60/14/1
usemtl __TB_empty
f  61/50/2  59/51/2  58/52/2  62/25/2
usemtl __TB_empty
f  62/29/3  58/53/3  57/54/3  63/32/3
usemtl __TB_empty
f  64/32/4  60/54/4  59/53/4  61/29/4
usemtl __TB_empty
f  63/25/5  57/52/5  60/51/5  64/50/5
usemtl __TB_empty
f  64/14/6  61/13/6  62/3/6  63/4/6

o entity0_brush8
usemtl __TB_empty
f  65/4/1  66/3/1  67/13/1  68/14/1
usemtl __TB_empty
f  69/55/2  67/56/2  66/57/2  70/58/2
usemtl __TB_empty
f  70/59/3  66/60/3  65/61/3  71/62/3
usemtl __TB_empty
f  72/62/4  68/61/4  67/60/4  69/59/4
usemtl __TB_empty
f  71/58/5  65/57/5  68/56/5  72/55/5
usemtl __TB_empty
f  72/14/6  69/13/6  70/3/6  71/4/6

o entity0_brush9
usemtl __TB_empty
f  73/63/1  74/4/1  75/3/1  76/64/1
usemtl __TB_empty
f  77/65/2  76/66/2  75/67/2  78/68/2
usemtl __TB_empty
f  78/69/3  75/70/3  74/71/3  79/72/3
usemtl __TB_empty
f  79/68/5  74/67/5  73/66/5  80/65/5
usemtl __TB_empty
f  80/72/7  73/71/7  76/70/7  77/69/7
usemtl __TB_empty
f  79/4/6  80/14/6  77/13/6  78/3/6

o entity0_brush10
usemtl __TB_empty
f  81/1/1  82/2/1  83/3/1  84/4/1
usemtl __TB_empty
f  85/6/2  83/25/2  82/73/2  86/7/2
usemtl __TB_empty
f  86/10/3  82/29/3  81/32/3  87/11/3
usemtl __TB_empty
f  88/11/4  84/32/4  83/29/4  85/10/4
usemtl __TB_empty
f  87/7/5  81/73/5  84/25/5  88/6/5
usemtl __TB_empty
f  88/4/6  85/3/6  86/2/6  87/1/6

o entity0_brush11
usemtl __TB_empty
f  89/1/1  90/2/1  91/45/1  92/44/1
usemtl __TB_empty
f  93/74/2  91/75/2  90/35/2  94/73/2
usemtl __TB_empty
f  94/29/3  90/30/3  89/31/3  95/32/3
usemtl __TB_empty
f  96/32/4  92/31/4  91/30/4  93/29/4
usemtl __TB_empty
f  95/73/5  89/35/5  92/75/5  96/74/5
usemtl __TB_empty
f  96/44/6  93/45/6  94/2/6  95/1/6

