mtllib fence_gate.mtl
# vertices
v -80 144 48
v -96 96 48
v -96 96 64
v -80 144 64
v -80 96 64
v -80 96 48
v 80 144 48
v 80 96 48
v 80 96 64
v 80 144 64
v 96 96 64
v 96 96 48
v -176 -16 48
v -176 -16 64
v -176 96 64
v -176 96 48
v -80 96 64
v -80 -16 64
v -80 -16 48
v -80 96 48
v -256 -16 48
v -256 -16 64
v -256 96 64
v -256 96 48
v -192 96 64
v -192 -16 64
v -192 -16 48
v -192 96 48
v -192 80 48
v -192 80 64
v -192 96 64
v -192 96 48
v -176 96 64
v -176 80 64
v -176 80 48
v -176 96 48
v -192 -16 48
v -192 -16 64
v -192 64 64
v -192 64 48
v -176 64 64
v -176 -16 64
v -176 -16 48
v -176 64 48
v 192 -16 48
v 192 -16 64
v 192 96 64
v 192 96 48
v 256 96 64
v 256 -16 64
v 256 -16 48
v 256 96 48
v 80 -16 48
v 80 -16 64
v 80 96 64
v 80 96 48
v 176 96 64
v 176 -16 64
v 176 -16 48
v 176 96 48
v 176 80 48
v 176 80 64
v 176 96 64
v 176 96 48
v 192 96 64
v 192 80 64
v 192 80 48
v 192 96 48
v 176 -16 48
v 176 -16 64
v 176 64 64
v 176 64 48
v 192 64 64
v 192 -16 64
v 192 -16 48
v 192 64 48
v -80 128 64
v -80 144 64
v -80 144 48
v -80 128 48
v 0 176 48
v 0 176 64
v 0 160 64
v 0 160 48
v 0 176 48
v 0 160 48
v 0 160 64
v 0 176 64
v 80 128 64
v 80 128 48
v 80 144 64
v 80 144 48

# texture coordinates
vt -48 144
vt -48 96
vt -64 96
vt -64 144
vt -80 144
vt -96 96
vt -80 96
vt -80 -64
vt -96 -64
vt -96 -48
vt -80 -48
vt 48 144
vt 48 96
vt 64 96
vt 64 144
vt -96 64
vt -80 64
vt -80 48
vt -96 48
vt -48 -16
vt -64 -16
vt -176 96
vt -176 -16
vt -80 -16
vt -176 -64
vt -176 -48
vt -192 96
vt -256 96
vt -256 -16
vt -192 -16
vt -192 -64
vt -256 -64
vt -256 -48
vt -192 -48
vt -48 80
vt -64 80
vt -192 80
vt -176 80
vt -64 64
vt -48 64
vt -176 64
vt -192 64
vt 256 96
vt 192 96
vt 192 -16
vt 256 -16
vt 256 -64
vt 192 -64
vt 192 -48
vt 256 -48
vt 176 96
vt 80 96
vt 80 -16
vt 176 -16
vt 176 -64
vt 80 -64
vt 80 -48
vt 176 -48
vt 176 80
vt 192 80
vt 192 64
vt 176 64
vt -64 128
vt -48 128
vt 0 -48
vt 0 -64
vt 0 176
vt -80 128
vt 0 160
vt -48 160
vt -48 176
vt -64 176
vt -64 160
vt 48 176
vt 48 160
vt 64 160
vt 64 176
vt 0 64
vt 0 48
vt 48 128
vt 64 128

# normals
vn -0.9486832980505138 0.31622776601683794 -0
vn 0 0 1
vn 0 -1 -0
vn 0 -0 -1
vn 1 0 0
vn -1 0 0
vn 0.9486832980505138 0.31622776601683794 -0
vn 0 1 0
vn -0.3713906763541037 0.9284766908852594 -0
vn 0.3713906763541037 -0.9284766908852594 -0
vn -0.3713906763541037 -0.9284766908852594 0
vn 0.3713906763541037 0.9284766908852594 -0

o entity0_brush0
usemtl __TB_empty
f  1/1/1  2/2/1  3/3/1  4/4/1
usemtl __TB_empty
f  4/5/2  3/6/2  5/7/2
usemtl __TB_empty
f  5/8/3  3/9/3  2/10/3  6/11/3
usemtl __TB_empty
f  6/7/4  2/6/4  1/5/4
usemtl __TB_empty
f  1/1/5  4/4/5  5/3/5  6/2/5

o entity0_brush1
usemtl __TB_empty
f  7/12/6  8/13/6  9/14/6  10/15/6
usemtl __TB_empty
f  10/5/2  9/7/2  11/6/2
usemtl __TB_empty
f  11/16/3  9/17/3  8/18/3  12/19/3
usemtl __TB_empty
f  12/6/4  8/7/4  7/5/4
usemtl __TB_empty
f  7/12/7  10/15/7  11/14/7  12/13/7

o entity0_brush2
usemtl __TB_empty
f  13/20/6  14/21/6  15/3/6  16/2/6
usemtl __TB_empty
f  17/7/2  15/22/2  14/23/2  18/24/2
usemtl __TB_empty
f  18/8/3  14/25/3  13/26/3  19/11/3
usemtl __TB_empty
f  20/11/8  16/26/8  15/25/8  17/8/8
usemtl __TB_empty
f  19/24/4  13/23/4  16/22/4  20/7/4
usemtl __TB_empty
f  20/2/5  17/3/5  18/21/5  19/20/5

o entity0_brush3
usemtl __TB_empty
f  21/20/6  22/21/6  23/3/6  24/2/6
usemtl __TB_empty
f  25/27/2  23/28/2  22/29/2  26/30/2
usemtl __TB_empty
f  26/31/3  22/32/3  21/33/3  27/34/3
usemtl __TB_empty
f  28/34/8  24/33/8  23/32/8  25/31/8
usemtl __TB_empty
f  27/30/4  21/29/4  24/28/4  28/27/4
usemtl __TB_empty
f  28/2/5  25/3/5  26/21/5  27/20/5

o entity0_brush4
usemtl __TB_empty
f  29/35/6  30/36/6  31/3/6  32/2/6
usemtl __TB_empty
f  33/22/2  31/27/2  30/37/2  34/38/2
usemtl __TB_empty
f  34/25/3  30/31/3  29/34/3  35/26/3
usemtl __TB_empty
f  36/26/8  32/34/8  31/31/8  33/25/8
usemtl __TB_empty
f  35/38/4  29/37/4  32/27/4  36/22/4
usemtl __TB_empty
f  36/2/5  33/3/5  34/36/5  35/35/5

o entity0_brush5
usemtl __TB_empty
f  37/20/6  38/21/6  39/39/6  40/40/6
usemtl __TB_empty
f  41/41/2  39/42/2  38/30/2  42/23/2
usemtl __TB_empty
f  42/25/3  38/31/3  37/34/3  43/26/3
usemtl __TB_empty
f  44/26/8  40/34/8  39/31/8  41/25/8
usemtl __TB_empty
f  43/23/4  37/30/4  40/42/4  44/41/4
usemtl __TB_empty
f  44/40/5  41/39/5  42/21/5  43/20/5

o entity0_brush6
usemtl __TB_empty
f  45/20/6  46/21/6  47/3/6  48/2/6
usemtl __TB_empty
f  49/43/2  47/44/2  46/45/2  50/46/2
usemtl __TB_empty
f  50/47/3  46/48/3  45/49/3  51/50/3
usemtl __TB_empty
f  52/50/8  48/49/8  47/48/8  49/47/8
usemtl __TB_empty
f  51/46/4  45/45/4  48/44/4  52/43/4
usemtl __TB_empty
f  52/2/5  49/3/5  50/21/5  51/20/5

o entity0_brush7
usemtl __TB_empty
f  53/20/6  54/21/6  55/3/6  56/2/6
usemtl __TB_empty
f  57/51/2  55/52/2  54/53/2  58/54/2
usemtl __TB_empty
f  58/55/3  54/56/3  53/57/3  59/58/3
usemtl __TB_empty
f  60/58/8  56/57/8  55/56/8  57/55/8
usemtl __TB_empty
f  59/54/4  53/53/4  56/52/4  60/51/4
usemtl __TB_empty
f  60/2/5  57/3/5  58/21/5  59/20/5

o entity0_brush8
usemtl __TB_empty
f  61/35/6  62/36/6  63/3/6  64/2/6
usemtl __TB_empty
f  65/44/2  63/51/2  62/59/2  66/60/2
usemtl __TB_empty
f  66/48/3  62/55/3  61/58/3  67/49/3
usemtl __TB_empty
f  68/49/8  64/58/8  63/55/8  65/48/8
usemtl __TB_empty
f  67/60/4  61/59/4  64/51/4  68/44/4
usemtl __TB_empty
f  68/2/5  65/3/5  66/36/5  67/35/5

o entity0_brush9
usemtl __TB_empty
f  69/20/6  70/21/6  71/39/6  72/40/6
usemtl __TB_empty
f  73/61/2  71/62/2  70/54/2  74/45/2
usemtl __TB_empty
f  74/48/3  70/55/3  69/58/3  75/49/3
usemtl __TB_empty
f  76/49/8  72/58/8  71/55/8  73/48/8
usemtl __TB_empty
f  75/45/4  69/54/4  72/62/4  76/61/4
usemtl __TB_empty
f  76/40/5  73/39/5  74/21/5  75/20/5

o entity0_brush10
usemtl __TB_empty
f  77/63/6  78/4/6  79/1/6  80/64/6
usemtl __TB_empty
f  81/65/9  79/11/9  78/8/9  82/66/9
usemtl __TB_empty
f  82/67/2  78/5/2  77/68/2  83/69/2
usemtl __TB_empty
f  84/69/4  80/68/4  79/5/4  81/67/4
usemtl __TB_empty
f  83/66/10  77/8/10  80/11/10  84/65/10
usemtl __TB_empty
f  84/70/5  81/71/5  82/72/5  83/73/5

o entity0_brush11
usemtl __TB_empty
f  85/74/6  86/75/6  87/76/6  88/77/6
usemtl __TB_empty
f  89/17/11  87/78/11  86/79/11  90/18/11
usemtl __TB_empty
f  91/5/2  88/67/2  87/69/2  89/68/2
usemtl __TB_empty
f  90/68/4  86/69/4  85/67/4  92/5/4
usemtl __TB_empty
f  92/18/12  85/79/12  88/78/12  91/17/12
usemtl __TB_empty
f  90/80/5  92/12/5  91/15/5  89/81/5

