mtllib fence_thick_gate.mtl
# vertices
v -160 0 -16
v -160 0 16
v -160 64 16
v -160 64 -16
v -32 64 16
v -32 0 16
v -32 0 -16
v -32 64 -16
v -48 64 -16
v -48 64 16
v -48 96 16
v -48 96 -16
v -32 96 16
v -32 64 16
v -32 64 -16
v -32 96 -16
v -32 64 -16
v -32 64 16
v -32 96 16
v -32 96 -16
v 32 96 16
v 32 64 16
v 32 64 -16
v 32 96 -16
v 32 64 -16
v 32 64 16
v 32 96 16
v 32 96 -16
v 48 96 16
v 48 64 16
v 48 64 -16
v 48 96 -16
v 32 0 -16
v 32 0 16
v 32 64 16
v 32 64 -16
v 160 64 16
v 160 0 16
v 160 0 -16
v 160 64 -16

# texture coordinates
vt 16 -0
vt -16 -0
vt -16 64
vt 16 64
vt -32 64
vt -160 64
vt -160 -0
vt -32 -0
vt -32 -16
vt -160 -16
vt -160 16
vt -32 16
vt -16 96
vt 16 96
vt -32 96
vt -48 96
vt -48 64
vt -48 -16
vt -48 16
vt 32 96
vt 32 64
vt 32 -16
vt 32 16
vt 48 96
vt 48 64
vt 48 -16
vt 48 16
vt 160 64
vt 32 -0
vt 160 -0
vt 160 -16
vt 160 16

# normals
vn -1 0 -0
vn -0 0 1
vn 0 -1 0
vn 0 1 -0
vn 0 0 -1
vn 1 0 -0

o entity0_brush0
usemtl __TB_empty
f  1/1/1  2/2/1  3/3/1  4/4/1
usemtl __TB_empty
f  5/5/2  3/6/2  2/7/2  6/8/2
usemtl __TB_empty
f  6/9/3  2/10/3  1/11/3  7/12/3
usemtl __TB_empty
f  8/12/4  4/11/4  3/10/4  5/9/4
usemtl __TB_empty
f  7/8/5  1/7/5  4/6/5  8/5/5
usemtl __TB_empty
f  8/4/6  5/3/6  6/2/6  7/1/6

o entity0_brush1
usemtl __TB_empty
f  9/4/1  10/3/1  11/13/1  12/14/1
usemtl __TB_empty
f  13/15/2  11/16/2  10/17/2  14/5/2
usemtl __TB_empty
f  14/9/3  10/18/3  9/19/3  15/12/3
usemtl __TB_empty
f  16/12/4  12/19/4  11/18/4  13/9/4
usemtl __TB_empty
f  15/5/5  9/17/5  12/16/5  16/15/5
usemtl __TB_empty
f  16/14/6  13/13/6  14/3/6  15/4/6

o entity0_brush2
usemtl __TB_empty
f  17/4/1  18/3/1  19/13/1  20/14/1
usemtl __TB_empty
f  21/20/2  19/15/2  18/5/2  22/21/2
usemtl __TB_empty
f  22/22/3  18/9/3  17/12/3  23/23/3
usemtl __TB_empty
f  24/23/4  20/12/4  19/9/4  21/22/4
usemtl __TB_empty
f  23/21/5  17/5/5  20/15/5  24/20/5
usemtl __TB_empty
f  24/14/6  21/13/6  22/3/6  23/4/6

o entity0_brush3
usemtl __TB_empty
f  25/4/1  26/3/1  27/13/1  28/14/1
usemtl __TB_empty
f  29/24/2  27/20/2  26/21/2  30/25/2
usemtl __TB_empty
f  30/26/3  26/22/3  25/23/3  31/27/3
usemtl __TB_empty
f  32/27/4  28/23/4  27/22/4  29/26/4
usemtl __TB_empty
f  31/25/5  25/21/5  28/20/5  32/24/5
usemtl __TB_empty
f  32/14/6  29/13/6  30/3/6  31/4/6

o entity0_brush4
usemtl __TB_empty
f  33/1/1  34/2/1  35/3/1  36/4/1
usemtl __TB_empty
f  37/28/2  35/21/2  34/29/2  38/30/2
usemtl __TB_empty
f  38/31/3  34/22/3  33/23/3  39/32/3
usemtl __TB_empty
f  40/32/4  36/23/4  35/22/4  37/31/4
usemtl __TB_empty
f  39/30/5  33/29/5  36/21/5  40/28/5
usemtl __TB_empty
f  40/4/6  37/3/6  38/2/6  39/1/6

