mtllib fence_thick.mtl
# vertices
v -144 0 -16
v -144 0 16
v -144 64 16
v -144 64 -16
v 144 64 16
v 144 0 16
v 144 0 -16
v 144 64 -16

# texture coordinates
vt 16 -0
vt -16 -0
vt -16 64
vt 16 64
vt 144 64
vt -144 64
vt -144 -0
vt 144 -0
vt 144 -16
vt -144 -16
vt -144 16
vt 144 16

# normals
vn -1 0 -0
vn -0 0 1
vn 0 -1 0
vn 0 1 -0
vn 0 0 -1
vn 1 0 -0

o entity0_brush0
usemtl __TB_empty
f  1/1/1  2/2/1  3/3/1  4/4/1
usemtl __TB_empty
f  5/5/2  3/6/2  2/7/2  6/8/2
usemtl __TB_empty
f  6/9/3  2/10/3  1/11/3  7/12/3
usemtl __TB_empty
f  8/12/4  4/11/4  3/10/4  5/9/4
usemtl __TB_empty
f  7/8/5  1/7/5  4/6/5  8/5/5
usemtl __TB_empty
f  8/4/6  5/3/6  6/2/6  7/1/6

