mtllib map_course.mtl
# vertices
v -64 -16 -96
v -64 -16 64
v -64 16 64
v -64 16 -96
v 64 16 64
v 64 -16 64
v 64 -16 -96
v 64 16 -96
v -64 16 32
v -64 16 64
v -64 64 64
v -64 64 32
v -32 64 64
v -32 16 64
v -32 16 32
v -32 64 32
v 64 0 -32
v 64 0 -0
v 64 16 -0
v 64 16 -32
v 208 16 -0
v 208 0 -0
v 208 0 -32
v 208 16 -32
v 208 -16 -96
v 208 -16 64
v 208 16 64
v 208 16 -96
v 336 16 64
v 336 -16 64
v 336 -16 -96
v 336 16 -96
v -64 16 -96
v -64 16 -64
v -64 64 -64
v -64 64 -96
v -32 64 -64
v -32 16 -64
v -32 16 -96
v -32 64 -96
v 320 16 -96
v 320 16 -80
v 320 144 -80
v 320 144 -96
v 336 144 -80
v 336 16 -80
v 336 16 -96
v 336 144 -96
v 320 16 48
v 320 16 64
v 320 144 64
v 320 144 48
v 336 144 64
v 336 16 64
v 336 16 48
v 336 144 48
v 320 128 -80
v 320 128 48
v 320 144 48
v 320 144 -80
v 336 144 48
v 336 128 48
v 336 128 -80
v 336 144 -80
v 352 -16 -32
v 352 -16 -0
v 352 16 -0
v 352 16 -32
v 384 16 -0
v 384 -16 -0
v 384 -16 -32
v 384 16 -32
v 400 0 -32
v 400 0 -0
v 400 32 -0
v 400 32 -32
v 432 32 -0
v 432 0 -0
v 432 0 -32
v 432 32 -32
v 448 16 -32
v 448 16 -0
v 448 48 -0
v 448 48 -32
v 480 48 -0
v 480 16 -0
v 480 16 -32
v 480 48 -32
v 496 32 -96
v 496 32 64
v 496 64 64
v 496 64 -96
v 624 64 64
v 624 32 64
v 624 32 -96
v 624 64 -96

# texture coordinates
vt 96 -16
vt -64 -16
vt -64 16
vt 96 16
vt 64 16
vt 64 -16
vt 64 -64
vt -64 -64
vt -64 96
vt 64 96
vt 96.333336 16.666664
vt -63.666664 16.666664
vt -63.666664 -15.333336
vt 96.333336 -15.333336
vt -32 16
vt -64 64
vt -32 64
vt -32 -64
vt -64 -32
vt -32 -32
vt 32 -0
vt 0 -0
vt 0 16
vt 32 16
vt 208 16
vt 64 -0
vt 208 -0
vt 64 32
vt 208 32
vt 336 16
vt 208 -16
vt 336 -16
vt 336 -64
vt 208 -64
vt 208 96
vt 336 96
vt 96.333336 15.666664
vt -63.666664 15.666664
vt -63.666664 -16.333336
vt 96.333336 -16.333336
vt 64 64
vt 96 64
vt -32 96
vt 80 16
vt 80 144
vt 96 144
vt 336 144
vt 320 144
vt 320 16
vt 336 80
vt 320 80
vt 320 96
vt -48 16
vt -64 144
vt -48 144
vt 320 -64
vt 320 -48
vt 336 -48
vt 80 128
vt -48 128
vt 320 128
vt 336 128
vt 32 -16
vt 0 -16
vt 384 16
vt 352 16
vt 352 -16
vt 384 -16
vt 384 -0
vt 352 -0
vt 352 32
vt 384 32
vt 0 32
vt 32 32
vt 432 32
vt 400 32
vt 400 -0
vt 432 -0
vt 0 48
vt 32 48
vt 480 48
vt 448 48
vt 448 16
vt 480 16
vt 480 -0
vt 448 -0
vt 448 32
vt 480 32
vt 96 32
vt -64 32
vt 624 64
vt 496 64
vt 496 32
vt 624 32
vt 624 -64
vt 496 -64
vt 496 96
vt 624 96
vt 96.33334 63.666664
vt -63.666656 63.666664
vt -63.666656 31.666664
vt 96.33334 31.666664

# normals
vn -1 0 0
vn 0 0 1
vn 0 -1 -0
vn -0 1 -0
vn 0 -0 -1
vn 1 0 0

o entity0_brush0
usemtl __TB_empty
f  1/1/1  2/2/1  3/3/1  4/4/1
usemtl __TB_empty
f  5/5/2  3/3/2  2/2/2  6/6/2
usemtl __TB_empty
f  6/7/3  2/8/3  1/9/3  7/10/3
usemtl __TB_empty
f  8/10/4  4/9/4  3/8/4  5/7/4
usemtl __TB_empty
f  7/6/5  1/2/5  4/3/5  8/5/5
usemtl __TB_empty
f  8/11/6  5/12/6  6/13/6  7/14/6

o entity0_brush1
usemtl __TB_empty
f  9/15/1  10/3/1  11/16/1  12/17/1
usemtl __TB_empty
f  13/17/2  11/16/2  10/3/2  14/15/2
usemtl __TB_empty
f  14/18/3  10/8/3  9/19/3  15/20/3
usemtl __TB_empty
f  16/20/4  12/19/4  11/8/4  13/18/4
usemtl __TB_empty
f  15/15/5  9/3/5  12/16/5  16/17/5
usemtl __TB_empty
f  16/17/6  13/16/6  14/3/6  15/15/6

o entity0_brush2
usemtl __TB_empty
f  17/21/1  18/22/1  19/23/1  20/24/1
usemtl __TB_empty
f  21/25/2  19/5/2  18/26/2  22/27/2
usemtl __TB_empty
f  22/27/3  18/26/3  17/28/3  23/29/3
usemtl __TB_empty
f  24/29/4  20/28/4  19/26/4  21/27/4
usemtl __TB_empty
f  23/27/5  17/26/5  20/5/5  24/25/5
usemtl __TB_empty
f  24/24/6  21/23/6  22/22/6  23/21/6

o entity0_brush3
usemtl __TB_empty
f  25/1/1  26/2/1  27/3/1  28/4/1
usemtl __TB_empty
f  29/30/2  27/25/2  26/31/2  30/32/2
usemtl __TB_empty
f  30/33/3  26/34/3  25/35/3  31/36/3
usemtl __TB_empty
f  32/36/4  28/35/4  27/34/4  29/33/4
usemtl __TB_empty
f  31/32/5  25/31/5  28/25/5  32/30/5
usemtl __TB_empty
f  32/37/6  29/38/6  30/39/6  31/40/6

o entity0_brush4
usemtl __TB_empty
f  33/4/1  34/5/1  35/41/1  36/42/1
usemtl __TB_empty
f  37/17/2  35/16/2  34/3/2  38/15/2
usemtl __TB_empty
f  38/17/3  34/16/3  33/9/3  39/43/3
usemtl __TB_empty
f  40/43/4  36/9/4  35/16/4  37/17/4
usemtl __TB_empty
f  39/15/5  33/3/5  36/16/5  40/17/5
usemtl __TB_empty
f  40/42/6  37/41/6  38/5/6  39/4/6

o entity0_brush5
usemtl __TB_empty
f  41/4/1  42/44/1  43/45/1  44/46/1
usemtl __TB_empty
f  45/47/2  43/48/2  42/49/2  46/30/2
usemtl __TB_empty
f  46/50/3  42/51/3  41/52/3  47/36/3
usemtl __TB_empty
f  48/36/4  44/52/4  43/51/4  45/50/4
usemtl __TB_empty
f  47/30/5  41/49/5  44/48/5  48/47/5
usemtl __TB_empty
f  48/46/6  45/45/6  46/44/6  47/4/6

o entity0_brush6
usemtl __TB_empty
f  49/53/1  50/3/1  51/54/1  52/55/1
usemtl __TB_empty
f  53/47/2  51/48/2  50/49/2  54/30/2
usemtl __TB_empty
f  54/33/3  50/56/3  49/57/3  55/58/3
usemtl __TB_empty
f  56/58/4  52/57/4  51/56/4  53/33/4
usemtl __TB_empty
f  55/30/5  49/49/5  52/48/5  56/47/5
usemtl __TB_empty
f  56/55/6  53/54/6  54/3/6  55/53/6

o entity0_brush7
usemtl __TB_empty
f  57/59/1  58/60/1  59/55/1  60/45/1
usemtl __TB_empty
f  61/47/2  59/48/2  58/61/2  62/62/2
usemtl __TB_empty
f  62/58/3  58/57/3  57/51/3  63/50/3
usemtl __TB_empty
f  64/50/4  60/51/4  59/57/4  61/58/4
usemtl __TB_empty
f  63/62/5  57/61/5  60/48/5  64/47/5
usemtl __TB_empty
f  64/45/6  61/55/6  62/60/6  63/59/6

o entity0_brush8
usemtl __TB_empty
f  65/63/1  66/64/1  67/23/1  68/24/1
usemtl __TB_empty
f  69/65/2  67/66/2  66/67/2  70/68/2
usemtl __TB_empty
f  70/69/3  66/70/3  65/71/3  71/72/3
usemtl __TB_empty
f  72/72/4  68/71/4  67/70/4  69/69/4
usemtl __TB_empty
f  71/68/5  65/67/5  68/66/5  72/65/5
usemtl __TB_empty
f  72/24/6  69/23/6  70/64/6  71/63/6

o entity0_brush9
usemtl __TB_empty
f  73/21/1  74/22/1  75/73/1  76/74/1
usemtl __TB_empty
f  77/75/2  75/76/2  74/77/2  78/78/2
usemtl __TB_empty
f  78/78/3  74/77/3  73/76/3  79/75/3
usemtl __TB_empty
f  80/75/4  76/76/4  75/77/4  77/78/4
usemtl __TB_empty
f  79/78/5  73/77/5  76/76/5  80/75/5
usemtl __TB_empty
f  80/74/6  77/73/6  78/22/6  79/21/6

o entity0_brush10
usemtl __TB_empty
f  81/24/1  82/23/1  83/79/1  84/80/1
usemtl __TB_empty
f  85/81/2  83/82/2  82/83/2  86/84/2
usemtl __TB_empty
f  86/85/3  82/86/3  81/87/3  87/88/3
usemtl __TB_empty
f  88/88/4  84/87/4  83/86/4  85/85/4
usemtl __TB_empty
f  87/84/5  81/83/5  84/82/5  88/81/5
usemtl __TB_empty
f  88/80/6  85/79/6  86/23/6  87/24/6

o entity0_brush11
usemtl __TB_empty
f  89/89/1  90/90/1  91/16/1  92/42/1
usemtl __TB_empty
f  93/91/2  91/92/2  90/93/2  94/94/2
usemtl __TB_empty
f  94/95/3  90/96/3  89/97/3  95/98/3
usemtl __TB_empty
f  96/98/4  92/97/4  91/96/4  93/95/4
usemtl __TB_empty
f  95/94/5  89/93/5  92/92/5  96/91/5
usemtl __TB_empty
f  96/99/6  93/100/6  94/101/6  95/102/6

