mtllib map_gazebo_corner.mtl
# vertices
v 160 16 32
v 160 16 176
v 160 48 176
v 160 48 32
v 192 48 176
v 192 16 176
v 192 16 32
v 192 48 32
v 32 16 144
v 32 16 176
v 32 48 176
v 32 48 144
v 160 48 176
v 160 16 176
v 160 16 144
v 160 48 144
v 176 -96 160
v 176 -96 176
v 176 16 176
v 176 16 160
v 192 16 176
v 192 -96 176
v 192 -96 160
v 192 16 160
v 176 -96 32
v 176 -96 48
v 176 16 48
v 176 16 32
v 192 16 48
v 192 -96 48
v 192 -96 32
v 192 16 32
v 32 -96 160
v 32 -96 176
v 32 16 176
v 32 16 160
v 48 16 176
v 48 -96 176
v 48 -96 160
v 48 16 160

# texture coordinates
vt -32 16
vt -176 16
vt -176 48
vt -32 48
vt 192 48
vt 160 48
vt 160 16
vt 192 16
vt 192 -176
vt 160 -176
vt 160 -32
vt 192 -32
vt -144 16
vt -144 48
vt 32 48
vt 32 16
vt 32 -176
vt 32 -144
vt 160 -144
vt -160 -96
vt -176 -96
vt -160 16
vt 176 16
vt 176 -96
vt 192 -96
vt 176 -176
vt 176 -160
vt 192 -160
vt -32 -96
vt -48 -96
vt -48 16
vt 192 -48
vt 176 -48
vt 176 -32
vt 48 16
vt 32 -96
vt 48 -96
vt 48 -176
vt 32 -160
vt 48 -160

# normals
vn -1 0 -0
vn 0 0 1
vn -0 -1 0
vn 0 1 0
vn 0 0 -1
vn 1 0 -0

o entity0_brush0
usemtl __TB_empty
f  1/1/1  2/2/1  3/3/1  4/4/1
usemtl __TB_empty
f  5/5/2  3/6/2  2/7/2  6/8/2
usemtl __TB_empty
f  6/9/3  2/10/3  1/11/3  7/12/3
usemtl __TB_empty
f  8/12/4  4/11/4  3/10/4  5/9/4
usemtl __TB_empty
f  7/8/5  1/7/5  4/6/5  8/5/5
usemtl __TB_empty
f  8/4/6  5/3/6  6/2/6  7/1/6

o entity0_brush1
usemtl __TB_empty
f  9/13/1  10/2/1  11/3/1  12/14/1
usemtl __TB_empty
f  13/6/2  11/15/2  10/16/2  14/7/2
usemtl __TB_empty
f  14/10/3  10/17/3  9/18/3  15/19/3
usemtl __TB_empty
f  16/19/4  12/18/4  11/17/4  13/10/4
usemtl __TB_empty
f  15/7/5  9/16/5  12/15/5  16/6/5
usemtl __TB_empty
f  16/14/6  13/3/6  14/2/6  15/13/6

o entity0_brush2
usemtl __TB_empty
f  17/20/1  18/21/1  19/2/1  20/22/1
usemtl __TB_empty
f  21/8/2  19/23/2  18/24/2  22/25/2
usemtl __TB_empty
f  22/9/3  18/26/3  17/27/3  23/28/3
usemtl __TB_empty
f  24/28/4  20/27/4  19/26/4  21/9/4
usemtl __TB_empty
f  23/25/5  17/24/5  20/23/5  24/8/5
usemtl __TB_empty
f  24/22/6  21/2/6  22/21/6  23/20/6

o entity0_brush3
usemtl __TB_empty
f  25/29/1  26/30/1  27/31/1  28/1/1
usemtl __TB_empty
f  29/8/2  27/23/2  26/24/2  30/25/2
usemtl __TB_empty
f  30/32/3  26/33/3  25/34/3  31/12/3
usemtl __TB_empty
f  32/12/4  28/34/4  27/33/4  29/32/4
usemtl __TB_empty
f  31/25/5  25/24/5  28/23/5  32/8/5
usemtl __TB_empty
f  32/1/6  29/31/6  30/30/6  31/29/6

o entity0_brush4
usemtl __TB_empty
f  33/20/1  34/21/1  35/2/1  36/22/1
usemtl __TB_empty
f  37/35/2  35/16/2  34/36/2  38/37/2
usemtl __TB_empty
f  38/38/3  34/17/3  33/39/3  39/40/3
usemtl __TB_empty
f  40/40/4  36/39/4  35/17/4  37/38/4
usemtl __TB_empty
f  39/37/5  33/36/5  36/16/5  40/35/5
usemtl __TB_empty
f  40/22/6  37/2/6  38/21/6  39/20/6

