# Blender v3.2.2 OBJ File: 'Pickaxe.blend'
# www.blender.org
mtllib Pickaxe.mtl
o Cylinder
v 0.000000 -0.841921 -0.674792
v 0.000000 14.701759 -0.674792
v 0.072085 -0.841921 -0.661826
v 0.072085 14.701759 -0.661826
v 0.141400 -0.841921 -0.623427
v 0.141400 14.701759 -0.623427
v 0.205281 -0.841921 -0.561069
v 0.205281 14.701759 -0.561069
v 0.261273 -0.841921 -0.477150
v 0.261273 14.701759 -0.477150
v 0.307225 -0.841921 -0.374895
v 0.307225 14.701759 -0.374895
v 0.341370 -0.841921 -0.258232
v 0.341370 14.701759 -0.258232
v 0.362396 -0.841921 -0.131645
v 0.362396 14.701759 -0.131645
v 0.369496 -0.841921 0.000000
v 0.369496 14.701759 0.000000
v 0.362396 -0.841921 0.131645
v 0.362396 14.701759 0.131645
v 0.341370 -0.841921 0.258232
v 0.341370 14.701759 0.258232
v 0.307225 -0.841921 0.374894
v 0.307225 14.701759 0.374894
v 0.261273 -0.841921 0.477150
v 0.261273 14.701759 0.477150
v 0.205281 -0.841921 0.561069
v 0.205281 14.701759 0.561069
v 0.141400 -0.841921 0.623427
v 0.141400 14.701759 0.623427
v 0.072085 -0.841921 0.661826
v 0.072085 14.701759 0.661826
v -0.000000 -0.841921 0.674792
v -0.000000 14.701759 0.674792
v -0.072085 -0.841921 0.661826
v -0.072085 14.701759 0.661826
v -0.141400 -0.841921 0.623427
v -0.141400 14.701759 0.623427
v -0.205281 -0.841921 0.561069
v -0.205281 14.701759 0.561069
v -0.261273 -0.841921 0.477150
v -0.261273 14.701759 0.477150
v -0.307225 -0.841921 0.374895
v -0.307225 14.701759 0.374895
v -0.341370 -0.841921 0.258232
v -0.341370 14.701759 0.258232
v -0.362396 -0.841921 0.131645
v -0.362396 14.701759 0.131645
v -0.369496 -0.841921 -0.000000
v -0.369496 14.701759 -0.000000
v -0.362396 -0.841921 -0.131646
v -0.362396 14.701759 -0.131646
v -0.341370 -0.841921 -0.258232
v -0.341370 14.701759 -0.258232
v -0.307225 -0.841921 -0.374894
v -0.307225 14.701759 -0.374894
v -0.261273 -0.841921 -0.477150
v -0.261273 14.701759 -0.477150
v -0.205281 -0.841921 -0.561069
v -0.205281 14.701759 -0.561069
v -0.141400 -0.841921 -0.623427
v -0.141400 14.701759 -0.623427
v -0.072085 -0.841921 -0.661826
v -0.072085 14.701759 -0.661826
vt 1.000000 0.500000
vt 1.000000 1.000000
vt 0.968750 1.000000
vt 0.968750 0.500000
vt 0.937500 1.000000
vt 0.937500 0.500000
vt 0.906250 1.000000
vt 0.906250 0.500000
vt 0.875000 1.000000
vt 0.875000 0.500000
vt 0.843750 1.000000
vt 0.843750 0.500000
vt 0.812500 1.000000
vt 0.812500 0.500000
vt 0.781250 1.000000
vt 0.781250 0.500000
vt 0.750000 1.000000
vt 0.750000 0.500000
vt 0.718750 1.000000
vt 0.718750 0.500000
vt 0.687500 1.000000
vt 0.687500 0.500000
vt 0.656250 1.000000
vt 0.656250 0.500000
vt 0.625000 1.000000
vt 0.625000 0.500000
vt 0.593750 1.000000
vt 0.593750 0.500000
vt 0.562500 1.000000
vt 0.562500 0.500000
vt 0.531250 1.000000
vt 0.531250 0.500000
vt 0.500000 1.000000
vt 0.500000 0.500000
vt 0.468750 1.000000
vt 0.468750 0.500000
vt 0.437500 1.000000
vt 0.437500 0.500000
vt 0.406250 1.000000
vt 0.406250 0.500000
vt 0.375000 1.000000
vt 0.375000 0.500000
vt 0.343750 1.000000
vt 0.343750 0.500000
vt 0.312500 1.000000
vt 0.312500 0.500000
vt 0.281250 1.000000
vt 0.281250 0.500000
vt 0.250000 1.000000
vt 0.250000 0.500000
vt 0.218750 1.000000
vt 0.218750 0.500000
vt 0.187500 1.000000
vt 0.187500 0.500000
vt 0.156250 1.000000
vt 0.156250 0.500000
vt 0.125000 1.000000
vt 0.125000 0.500000
vt 0.093750 1.000000
vt 0.093750 0.500000
vt 0.062500 1.000000
vt 0.062500 0.500000
vt 0.296822 0.485388
vt 0.250000 0.490000
vt 0.203178 0.485388
vt 0.158156 0.471731
vt 0.116663 0.449553
vt 0.080294 0.419706
vt 0.050447 0.383337
vt 0.028269 0.341844
vt 0.014612 0.296822
vt 0.010000 0.250000
vt 0.014612 0.203178
vt 0.028269 0.158156
vt 0.050447 0.116663
vt 0.080294 0.080294
vt 0.116663 0.050447
vt 0.158156 0.028269
vt 0.203178 0.014612
vt 0.250000 0.010000
vt 0.296822 0.014612
vt 0.341844 0.028269
vt 0.383337 0.050447
vt 0.419706 0.080294
vt 0.449553 0.116663
vt 0.471731 0.158156
vt 0.485388 0.203178
vt 0.490000 0.250000
vt 0.485388 0.296822
vt 0.471731 0.341844
vt 0.449553 0.383337
vt 0.419706 0.419706
vt 0.383337 0.449553
vt 0.341844 0.471731
vt 0.031250 1.000000
vt 0.031250 0.500000
vt 0.000000 1.000000
vt 0.000000 0.500000
vt 0.750000 0.490000
vt 0.796822 0.485388
vt 0.841844 0.471731
vt 0.883337 0.449553
vt 0.919706 0.419706
vt 0.949553 0.383337
vt 0.971731 0.341844
vt 0.985388 0.296822
vt 0.990000 0.250000
vt 0.985388 0.203178
vt 0.971731 0.158156
vt 0.949553 0.116663
vt 0.919706 0.080294
vt 0.883337 0.050447
vt 0.841844 0.028269
vt 0.796822 0.014612
vt 0.750000 0.010000
vt 0.703178 0.014612
vt 0.658156 0.028269
vt 0.616663 0.050447
vt 0.580294 0.080294
vt 0.550447 0.116663
vt 0.528269 0.158156
vt 0.514612 0.203178
vt 0.510000 0.250000
vt 0.514612 0.296822
vt 0.528269 0.341844
vt 0.550447 0.383337
vt 0.580294 0.419706
vt 0.616663 0.449553
vt 0.658156 0.471731
vt 0.703178 0.485388
vn 0.1770 0.0000 -0.9842
vn 0.4846 0.0000 -0.8747
vn 0.6985 0.0000 -0.7156
vn 0.8318 0.0000 -0.5550
vn 0.9121 0.0000 -0.4099
vn 0.9597 0.0000 -0.2809
vn 0.9865 0.0000 -0.1639
vn 0.9985 0.0000 -0.0539
vn 0.9985 0.0000 0.0539
vn 0.9865 0.0000 0.1639
vn 0.9597 0.0000 0.2809
vn 0.9121 0.0000 0.4099
vn 0.8318 0.0000 0.5550
vn 0.6985 0.0000 0.7156
vn 0.4846 0.0000 0.8747
vn 0.1770 0.0000 0.9842
vn -0.1770 0.0000 0.9842
vn -0.4846 0.0000 0.8747
vn -0.6985 0.0000 0.7156
vn -0.8318 0.0000 0.5550
vn -0.9121 0.0000 0.4099
vn -0.9597 0.0000 0.2809
vn -0.9865 0.0000 0.1639
vn -0.9985 0.0000 0.0539
vn -0.9985 0.0000 -0.0539
vn -0.9865 0.0000 -0.1639
vn -0.9597 0.0000 -0.2809
vn -0.9121 0.0000 -0.4099
vn -0.8318 0.0000 -0.5550
vn -0.6985 0.0000 -0.7156
vn 0.0000 1.0000 0.0000
vn -0.4846 0.0000 -0.8747
vn -0.1770 0.0000 -0.9842
vn 0.0000 -1.0000 -0.0000
usemtl None
s off
f 1/1/1 2/2/1 4/3/1 3/4/1
f 3/4/2 4/3/2 6/5/2 5/6/2
f 5/6/3 6/5/3 8/7/3 7/8/3
f 7/8/4 8/7/4 10/9/4 9/10/4
f 9/10/5 10/9/5 12/11/5 11/12/5
f 11/12/6 12/11/6 14/13/6 13/14/6
f 13/14/7 14/13/7 16/15/7 15/16/7
f 15/16/8 16/15/8 18/17/8 17/18/8
f 17/18/9 18/17/9 20/19/9 19/20/9
f 19/20/10 20/19/10 22/21/10 21/22/10
f 21/22/11 22/21/11 24/23/11 23/24/11
f 23/24/12 24/23/12 26/25/12 25/26/12
f 25/26/13 26/25/13 28/27/13 27/28/13
f 27/28/14 28/27/14 30/29/14 29/30/14
f 29/30/15 30/29/15 32/31/15 31/32/15
f 31/32/16 32/31/16 34/33/16 33/34/16
f 33/34/17 34/33/17 36/35/17 35/36/17
f 35/36/18 36/35/18 38/37/18 37/38/18
f 37/38/19 38/37/19 40/39/19 39/40/19
f 39/40/20 40/39/20 42/41/20 41/42/20
f 41/42/21 42/41/21 44/43/21 43/44/21
f 43/44/22 44/43/22 46/45/22 45/46/22
f 45/46/23 46/45/23 48/47/23 47/48/23
f 47/48/24 48/47/24 50/49/24 49/50/24
f 49/50/25 50/49/25 52/51/25 51/52/25
f 51/52/26 52/51/26 54/53/26 53/54/26
f 53/54/27 54/53/27 56/55/27 55/56/27
f 55/56/28 56/55/28 58/57/28 57/58/28
f 57/58/29 58/57/29 60/59/29 59/60/29
f 59/60/30 60/59/30 62/61/30 61/62/30
f 4/63/31 2/64/31 64/65/31 62/66/31 60/67/31 58/68/31 56/69/31 54/70/31 52/71/31 50/72/31 48/73/31 46/74/31 44/75/31 42/76/31 40/77/31 38/78/31 36/79/31 34/80/31 32/81/31 30/82/31 28/83/31 26/84/31 24/85/31 22/86/31 20/87/31 18/88/31 16/89/31 14/90/31 12/91/31 10/92/31 8/93/31 6/94/31
f 61/62/32 62/61/32 64/95/32 63/96/32
f 63/96/33 64/95/33 2/97/33 1/98/33
f 1/99/34 3/100/34 5/101/34 7/102/34 9/103/34 11/104/34 13/105/34 15/106/34 17/107/34 19/108/34 21/109/34 23/110/34 25/111/34 27/112/34 29/113/34 31/114/34 33/115/34 35/116/34 37/117/34 39/118/34 41/119/34 43/120/34 45/121/34 47/122/34 49/123/34 51/124/34 53/125/34 55/126/34 57/127/34 59/128/34 61/129/34 63/130/34
o Cube_Cube.001
v -0.370243 12.188210 5.102579
v -0.370243 12.950933 5.749305
v -0.590117 12.306005 -5.283358
v -0.590117 13.041479 -5.960909
v 0.629758 12.188210 5.102577
v 0.629758 12.950933 5.749304
v 0.409883 12.306005 -5.283358
v 0.409883 13.041480 -5.960909
v -0.897480 13.866794 0.025337
v -0.455719 11.813126 6.305705
v -0.897481 15.085930 0.025337
v -0.723776 11.893506 -6.480867
v -0.114205 11.452098 -6.060476
v -0.114213 12.336243 -6.899870
v 0.495360 11.893505 -6.480869
v 0.321655 13.866794 0.025338
v 0.321655 15.085930 0.025337
v 0.763417 11.813126 6.305705
v 0.153849 11.348195 5.911481
v 0.153849 12.278057 6.699928
v -1.127419 14.476362 0.025338
v -0.164765 10.256107 -8.282999
v 0.551594 14.476362 0.025337
v 0.204406 10.225656 8.151968
v -0.287913 13.636855 0.025337
v -0.287913 15.315868 0.025337
vt 0.375000 0.000000
vt 0.500000 0.000000
vt 0.500000 0.125000
vt 0.375000 0.125000
vt 0.625000 0.000000
vt 0.625000 0.125000
vt 0.625000 0.250000
vt 0.500000 0.250000
vt 0.375000 0.250000
vt 0.500000 0.375000
vt 0.375000 0.375000
vt 0.625000 0.375000
vt 0.625000 0.500000
vt 0.500000 0.500000
vt 0.375000 0.500000
vt 0.500000 0.625000
vt 0.375000 0.625000
vt 0.625000 0.625000
vt 0.625000 0.750000
vt 0.500000 0.750000
vt 0.375000 0.750000
vt 0.500000 0.875000
vt 0.375000 0.875000
vt 0.625000 0.875000
vt 0.625000 1.000000
vt 0.500000 1.000000
vt 0.375000 1.000000
vt 0.125000 0.500000
vt 0.250000 0.500000
vt 0.250000 0.625000
vt 0.125000 0.625000
vt 0.250000 0.750000
vt 0.125000 0.750000
vt 0.750000 0.500000
vt 0.750000 0.625000
vt 0.875000 0.500000
vt 0.875000 0.625000
vt 0.875000 0.750000
vt 0.750000 0.750000
vn -0.8377 -0.5337 -0.1156
vn -0.9543 0.2322 0.1881
vn -0.9598 0.2411 -0.1439
vn -0.8075 -0.5701 0.1514
vn -0.6935 -0.6369 0.3369
vn -0.6974 0.3931 -0.5993
vn 0.6938 0.3713 -0.6171
vn 0.6893 -0.6528 0.3141
vn 0.8810 -0.4457 0.1587
vn 0.9780 0.1963 -0.0702
vn 0.9751 0.2171 0.0445
vn 0.8966 -0.3984 -0.1933
vn 0.6963 -0.6439 -0.3173
vn 0.6951 0.4113 0.5896
vn -0.6911 0.3905 0.6082
vn -0.6925 -0.6590 -0.2936
vn -0.6024 -0.7655 0.2262
vn 0.5623 -0.7817 0.2699
vn 0.5335 -0.7830 -0.3198
vn -0.5742 -0.7848 -0.2332
vn -0.0885 0.9277 -0.3628
vn 0.0972 0.9287 -0.3578
vn 0.0404 0.9233 0.3820
vn -0.0373 0.9215 0.3867
usemtl None
s off
f 65/131/35 74/132/35 85/133/35 73/134/35
f 74/132/36 66/135/36 75/136/36 85/133/36
f 85/133/37 75/136/37 68/137/37 76/138/37
f 73/134/38 85/133/38 76/138/38 67/139/38
f 67/139/39 76/138/39 86/140/39 77/141/39
f 76/138/40 68/137/40 78/142/40 86/140/40
f 86/140/41 78/142/41 72/143/41 79/144/41
f 77/141/42 86/140/42 79/144/42 71/145/42
f 71/145/43 79/144/43 87/146/43 80/147/43
f 79/144/44 72/143/44 81/148/44 87/146/44
f 87/146/45 81/148/45 70/149/45 82/150/45
f 80/147/46 87/146/46 82/150/46 69/151/46
f 69/151/47 82/150/47 88/152/47 83/153/47
f 82/150/48 70/149/48 84/154/48 88/152/48
f 88/152/49 84/154/49 66/155/49 74/156/49
f 83/153/50 88/152/50 74/156/50 65/157/50
f 67/158/51 77/159/51 89/160/51 73/161/51
f 77/159/52 71/145/52 80/147/52 89/160/52
f 89/160/53 80/147/53 69/151/53 83/162/53
f 73/161/54 89/160/54 83/162/54 65/163/54
f 72/143/55 78/164/55 90/165/55 81/148/55
f 78/164/56 68/166/56 75/167/56 90/165/56
f 90/165/57 75/167/57 66/168/57 84/169/57
f 81/148/58 90/165/58 84/169/58 70/149/58
